<?xml version="1.0" encoding="UTF-8"?>
<svg xmlns="http://www.w3.org/2000/svg" xmlns:xlink="http://www.w3.org/1999/xlink" version="1.1" x="0px" y="0px" viewBox="0 0 100 125" enable-background="new 0 0 100 100" xml:space="preserve">
  <path fill="#7dcfef" d="M79.319,72.5V30.312h0.938c2.585,0,4.688-2.102,4.688-4.688s-2.102-4.688-4.688-4.688h-60  c-2.585,0-4.688,2.102-4.688,4.688s2.102,4.688,4.688,4.688h0.938V72.5c0,0.519,0.419,0.938,0.938,0.938h27.188v3.922  c-1.089,0.389-1.875,1.419-1.875,2.641c0,1.551,1.262,2.812,2.812,2.812s2.812-1.262,2.812-2.812c0-1.222-0.786-2.252-1.875-2.641  v-3.922h27.188C78.899,73.438,79.319,73.019,79.319,72.5z M50.256,80.938c-0.516,0-0.938-0.421-0.938-0.938s0.421-0.938,0.938-0.938  s0.938,0.421,0.938,0.938S50.772,80.938,50.256,80.938z M17.444,25.625c0-1.551,1.262-2.812,2.812-2.812h60  c1.551,0,2.812,1.262,2.812,2.812s-1.262,2.812-2.812,2.812h-60C18.706,28.438,17.444,27.176,17.444,25.625z M77.444,30.312v41.25  H23.069v-41.25H77.444z"/>
  <ellipse fill="#ff794a" cx="40.881" cy="52.812" rx="1.875" ry="2.812"/>
  <ellipse fill="#ff794a" cx="59.631" cy="52.812" rx="1.875" ry="2.812"/>
  <path  fill="#ff794a" d="M50.188,65.938c3.618,0,6.562-2.944,6.562-6.562c0-0.519-0.419-0.938-0.938-0.938  c-0.518,0-0.938,0.419-0.938,0.938c0,2.586-2.102,4.688-4.688,4.688s-4.688-2.102-4.688-4.688c0-0.519-0.419-0.938-0.938-0.938  c-0.518,0-0.938,0.419-0.938,0.938C43.626,62.993,46.57,65.938,50.188,65.938z"/>
</svg>
