<?xml version="1.0" encoding="UTF-8"?>
<svg xmlns="http://www.w3.org/2000/svg" xmlns:xlink="http://www.w3.org/1999/xlink" version="1.1" x="0px" y="0px" viewBox="0 0 100 125" enable-background="new 0 0 100 100" xml:space="preserve">
  <g>
    <g fill="#7dcfef">
      <g>
        <g>
          <path fill-rule="evenodd" clip-rule="evenodd" d="M17.348,83.455V74.73c0-1.048,2.099-1.712,2.65-1.934      c1.493-0.496,3.757-1.323,3.757-4.03c0-1.931-0.608-3.479-1.104-4.802c-0.496-1.16-0.885-2.21-0.885-3.37      c0-2.151,1.272-4.474,3.98-4.474c2.761,0,4.028,2.322,4.028,4.474c0,1.16-0.383,2.21-0.878,3.37      c-0.503,1.323-1.111,2.872-1.111,4.802c0,2.707,2.212,3.534,3.699,4.03c0.555,0.222,2.515,0.886,2.515,1.934v8.725l2.403-0.052      V74.73c0-2.208-1.875-3.642-3.478-4.195c-1.99-0.664-2.706-1.048-2.706-1.769c0-1.491,0.494-2.704,0.937-3.921      c0.502-1.324,1.052-2.65,1.052-4.251c0-3.421-2.21-6.846-6.461-6.846c-4.195,0-6.407,3.425-6.407,6.846      c0,1.602,0.497,2.928,1.046,4.251c0.442,1.217,0.939,2.43,0.939,3.921c0,0.72,0.28,1.104-1.77,1.769      c-1.597,0.554-4.578,1.6-4.524,4.195v8.672L17.348,83.455z"/>
        </g>
      </g>
      <g>
        <g>
          <path fill-rule="evenodd" clip-rule="evenodd" d="M42.077,83.455V74.73c0-1.048,2.099-1.712,2.65-1.934      c1.493-0.496,3.757-1.323,3.757-4.03c0-1.931-0.608-3.479-1.104-4.802c-0.496-1.16-0.885-2.21-0.885-3.37      c0-2.151,1.272-4.474,3.98-4.474c2.761,0,4.028,2.322,4.028,4.474c0,1.16-0.383,2.21-0.878,3.37      c-0.503,1.323-1.111,2.872-1.111,4.802c0,2.707,2.212,3.534,3.699,4.03c0.555,0.222,2.515,0.886,2.515,1.934v8.725l2.403-0.052      V74.73c0-2.208-1.875-3.642-3.478-4.195c-1.99-0.664-2.706-1.048-2.706-1.769c0-1.491,0.494-2.704,0.937-3.921      c0.502-1.324,1.052-2.65,1.052-4.251c0-3.421-2.21-6.846-6.461-6.846c-4.195,0-6.407,3.425-6.407,6.846      c0,1.602,0.497,2.928,1.046,4.251c0.442,1.217,0.939,2.43,0.939,3.921c0,0.72,0.28,1.104-1.77,1.769      c-1.597,0.554-4.578,1.6-4.524,4.195v8.672L42.077,83.455z"/>
        </g>
      </g>
      <g>
        <g>
          <path fill-rule="evenodd" clip-rule="evenodd" d="M66.805,83.455V74.73c0-1.048,2.099-1.712,2.65-1.934      c1.493-0.496,3.757-1.323,3.757-4.03c0-1.931-0.608-3.479-1.104-4.802c-0.496-1.16-0.885-2.21-0.885-3.37      c0-2.151,1.272-4.474,3.98-4.474c2.761,0,4.028,2.322,4.028,4.474c0,1.16-0.383,2.21-0.878,3.37      c-0.503,1.323-1.111,2.872-1.111,4.802c0,2.707,2.212,3.534,3.699,4.03c0.555,0.222,2.515,0.886,2.515,1.934v8.725l2.403-0.052      V74.73c0-2.208-1.875-3.642-3.478-4.195c-1.99-0.664-2.706-1.048-2.706-1.769c0-1.491,0.494-2.704,0.937-3.921      c0.502-1.324,1.052-2.65,1.052-4.251c0-3.421-2.21-6.846-6.461-6.846c-4.195,0-6.407,3.425-6.407,6.846      c0,1.602,0.497,2.928,1.046,4.251c0.442,1.217,0.939,2.43,0.939,3.921c0,0.72,0.28,1.104-1.77,1.769      c-1.597,0.554-4.578,1.6-4.524,4.195v8.672L66.805,83.455z"/>
        </g>
      </g>
    </g>
    <g fill="#ff794a">
      <g>
        <rect x="21.034" y="25.349" width="23.996" height="2.456"/>
        <rect x="21.034" y="30.701" width="33.034" height="2.457"/>
        <rect x="21.034" y="35.853" width="29.205" height="2.456"/>
      </g>
      <g>
        <path d="M68.139,30.804h1.953c1.334,0,2.358-0.762,2.358-2.073c0-1.215-0.833-2.023-2.096-2.023c-1.263,0-2.096,0.738-2.19,1.88     h-3.74c0.191-3.071,2.191-5.096,5.811-5.096c3.335,0,5.789,2.096,5.789,5.239c0,2.526-1.787,4.192-4.596,4.574l-0.121,1.38     h-2.928L68.139,30.804z M67.663,38.163c0-1.142,0.953-2,2.073-2c1.143,0,2.095,0.858,2.095,2c0,1.143-0.952,2.001-2.095,2.001     C68.616,40.164,67.663,39.306,67.663,38.163z"/>
      </g>
      <path d="M89.095,47.112H11.793V16.545h77.302V47.112z M14.261,44.644h72.366v-25.63H14.261V44.644z"/>
    </g>
  </g>
</svg>
