<?xml version="1.0" encoding="UTF-8"?>
<svg xmlns:dc="http://purl.org/dc/elements/1.1/" xmlns:cc="http://creativecommons.org/ns#" xmlns:rdf="http://www.w3.org/1999/02/22-rdf-syntax-ns#" xmlns:svg="http://www.w3.org/2000/svg" xmlns="http://www.w3.org/2000/svg" xmlns:sodipodi="http://sodipodi.sourceforge.net/DTD/sodipodi-0.dtd" xmlns:inkscape="http://www.inkscape.org/namespaces/inkscape" version="1.1" x="0px" y="0px" viewBox="0 0 100 125">
  <g transform="translate(0,-952.36218)" fill="#7dcfef">
    <path d="m 50.28125,977.64338 c -1.239583,1.2396 -3.71875,3.7188 -3.71875,3.7188 l -23.5625,0 0,-1 c -5.2e-5,-0.5236 -0.476416,-1 -1,-1 l -14,0 c -0.663873,0 -1,0.5808 -1,1 l 0,32.00002 c 5.2e-5,0.5236 0.476416,0.9999 1,1 l 14,0 c 0.523584,-10e-5 0.999948,-0.4764 1,-1 l 0,-1 4.5,0 9.6875,13.5625 c 1.060766,1.4851 2.881211,2.4375 4.8125,2.4375 1.333755,0 2.699853,-0.382 3.8125,-1.1875 0.660634,-0.4783 1.22585,-1.1256 1.625,-1.9063 1.047324,0.7628 2.343688,1.0938 3.5625,1.0938 1.473748,0 2.776378,-0.6657 3.625,-1.75 0.477003,-0.6095 0.803126,-1.3387 1.03125,-2.1563 0.976429,0.6501 2.156371,0.9232 3.34375,0.9063 1.279029,-0.019 2.644105,-0.3704 3.78125,-1.1563 0.776741,-0.5369 1.441596,-1.3122 1.84375,-2.2812 0.82672,0.3592 1.644019,0.4375 2.375,0.4375 1.99869,0 3.806766,-1.0547 4.84375,-2.6563 0.944696,-1.4591 1.175341,-3.4636 0.28125,-5.3437 l 4.875,0 0,1 c 5.2e-5,0.5236 0.476416,0.9999 1,1 l 14,0 c 0.52358,-10e-5 0.99995,-0.4764 1,-1 l 0,-32.00002 c -5e-5,-0.5236 -0.47642,-1 -1,-1 l -14,0 c -0.06232,-0.01 -0.125184,-0.01 -0.1875,0 -0.458402,0.087 -0.820723,0.5334 -0.8125,1 l 0,1 -8.78125,0 -16.504892,-3.8835 c -0.242223,-0.057 -0.490571,-0.1165 -0.713858,-0.1165 -0.273102,0 -0.545582,0.1081 -0.71875,0.2812 z m 1.03125,1.8125 16.46875,3.875 c 0.07147,0.018 0.144978,0.029 0.21875,0.031 l 9,0 0,26.00002 -5.9375,0 -9.1875,-17.46872 c -0.237526,-0.4505 -0.852196,-0.6554 -1.3125,-0.4375 l -17.75,8.87502 c -1.709333,-0.034 -3.20962,-0.48412 -4.21875,-1.18752 -1.272625,-1.0963 -1.576875,-2.0109 -1.570566,-3.3855 0.165432,-1.492 1.16447,-3.0759 2.007491,-4.0202 z M 9,981.36218 l 12,0 0,30.00002 -12,0 z m 70,0 12,0 0,30.00002 -12,0 z m -56,2 21.5625,0 -6.911875,6.9119 c -1.49681,1.679 -2.377637,3.4152 -2.602524,5.4578 -0.236122,1.9335 1.126662,4.1354 2.420649,5.06782 1.467672,1.023 3.393745,1.5625 5.53125,1.5625 0.152826,-0.01 0.303798,-0.051 0.4375,-0.125 l 17.15625,-8.56252 9.425703,17.92432 c 0.692326,1.3165 0.837801,2.9583 0.168047,4.0132 -0.658006,1.0364 -1.906005,1.75 -3.1875,1.75 -0.942208,0 -1.472728,-0.076 -2.25,-0.7188 l -8.875,-15.7812 c -0.255073,-0.4555 -0.900277,-0.6392 -1.356994,-0.3863 -0.456718,0.2528 -0.643579,0.8971 -0.393006,1.355 l 8.8125,15.6875 c -0.172306,0.9595 -0.616686,1.6032 -1.28125,2.0625 -0.730599,0.5049 -1.715944,0.7677 -2.65625,0.7813 -1.452601,0.021 -2.412057,-0.3653 -3.125,-1.5313 l -7,-12 c -0.185792,-0.3238 -0.565037,-0.5261 -0.9375,-0.5 -0.69861,0.024 -1.184167,0.9393 -0.8125,1.5313 l 6.84375,11.75 c -0.110381,1.234 -0.441834,2.1879 -0.90625,2.7812 -0.505168,0.6455 -1.088939,0.9688 -2.0625,0.9688 -1.624694,0 -2.583508,-0.6625 -3.331467,-1.8379 l -6.824783,-10.7246 c -0.193964,-0.3125 -0.57117,-0.5011 -0.9375,-0.4688 -0.696867,0.053 -1.144958,0.986 -0.75,1.5625 l 6.75,10.6563 c -0.207103,0.8944 -0.645362,1.5396 -1.28125,2 -0.718677,0.5203 -1.671043,0.8125 -2.625,0.8125 -1.251989,0 -2.54958,-0.7006 -3.1875,-1.5938 l -10,-14 c -0.186627,-0.2529 -0.498195,-0.4087 -0.8125,-0.4062 l -5,0 z m -8,20.00002 c -1.644895,0 -2.999911,1.3549 -3,3 4.5e-5,1.6451 1.355074,3 3,3 1.644933,-10e-5 2.999777,-1.355 3,-3 -2.23e-4,-1.6448 -1.354948,-3 -3,-3 z m 70,0 c -1.644936,0 -3.000015,1.3549 -3,3 1.5e-5,1.645 1.354943,3 3,3 1.644877,-10e-5 3,-1.355 3,-3 1.5e-5,-1.6451 -1.355059,-3 -3,-3 z m -70,2 c 0.564088,0 0.999923,0.4362 1,1 -7.7e-5,0.5646 -0.435593,0.9999 -1,1 -0.564194,0 -0.999985,-0.4357 -1,-1 3.1e-5,-0.5643 0.435895,-1 1,-1 z m 70,0 c 0.564239,0 1.000005,0.4357 1,1 0,0.5642 -0.435757,0.9999 -1,1 -0.564103,0 -0.999995,-0.436 -1,-1 -5e-6,-0.5643 0.435776,-1 1,-1 z" />
  </g>
  <g transform="translate(0,-952.36218)" fill="#ff794a">
    <path d="m 44.5625,983.36218 -6.911875,6.9119 c -1.49681,1.679 -2.377637,3.4152 -2.602524,5.4578 -0.236122,1.9335 1.126662,4.1354 2.420649,5.06782 1.467672,1.023 3.393745,1.5625 5.53125,1.5625 0.152826,-0.01 0.303798,-0.051 0.4375,-0.125 l 17.15625,-8.56252 9.425703,17.92432 2.105547,-0.2368 4.875,0 0,1 c 5.2e-5,0.5236 0.476416,0.9999 1,1 l 14,0 c 0.52358,-10e-5 0.99995,-0.4764 1,-1 l 0,-32.00002 c -5e-5,-0.5236 -0.47642,-1 -1,-1 l -14,0 c -0.06232,-0.01 -0.125184,-0.01 -0.1875,0 -0.458402,0.087 -0.820723,0.5334 -0.8125,1 l 0,1 -8.78125,0 -16.504892,-3.8835 c -0.242223,-0.057 -0.490571,-0.1165 -0.713858,-0.1165 -0.273102,0 -0.545582,0.1081 -0.71875,0.2812 l -3.71875,3.7188 -2,2 m 6.75,-3.9063 16.46875,3.875 c 0.07147,0.018 0.144978,0.029 0.21875,0.031 l 9,0 0,26.00002 -5.9375,0 -9.1875,-17.46872 c -0.237526,-0.4505 -0.852196,-0.6554 -1.3125,-0.4375 l -17.75,8.87502 c -1.709333,-0.034 -3.20962,-0.48412 -4.21875,-1.18752 -1.272625,-1.0963 -1.576875,-2.0109 -1.570566,-3.3855 0.165432,-1.492 1.16447,-3.0759 2.007491,-4.0202 z m 27.6875,1.9063 12,0 0,30.00002 -12,0 z m 6,22.00002 c -1.644936,0 -3.000015,1.3549 -3,3 1.5e-5,1.645 1.354943,3 3,3 1.644877,-10e-5 3,-1.355 3,-3 1.5e-5,-1.6451 -1.355059,-3 -3,-3 z m 0,2 c 0.564239,0 1.000005,0.4357 1,1 0,0.5642 -0.435757,0.9999 -1,1 -0.564103,0 -0.999995,-0.436 -1,-1 -5e-6,-0.5643 0.435776,-1 1,-1 z" />
  </g>
</svg>
