<?xml version="1.0" encoding="UTF-8"?>
<svg xmlns="http://www.w3.org/2000/svg" xmlns:xlink="http://www.w3.org/1999/xlink" version="1.1" x="0px" y="0px" viewBox="0 0 100 125" enable-background="new 0 0 100 100" xml:space="preserve">
  <path fill="#7dcfef" d="m 81.6,10 -45.9,0 -13.4,0 c -2.2,0 -4,1.8 -4,4 l 0,4 -3.6,0 0,2.7 3.6,0 0,9.7 -3.6,0 0,2.7 3.6,0 0,10.8 -3.6,0 0,2.7 3.6,0 0,10.8 -3.6,0 0,2.6 3.6,0 0,10.8 -3.6,0 0,2.7 3.6,0 0,7.8 0,4.2 c 0,2.2 1.8,4 4,4 l 59.3,0 4,0 0,-8.2 0,-4 0,-67.3 z M 21,70.8 21,60 l 3.2,0 0,-2.7 -3.2,0 0,-10.8 3.2,0 0,-2.7 -3.2,0 0,-10.7 3.2,0 0,-2.7 -3.2,0 0,-9.7 3.2,0 0,-2.7 -3.2,0 0,-4 c 0,-0.7 0.6,-1.3 1.3,-1.3 l 9,0 0,64.7 -9,0 c -0.5,0 -0.9,0.1 -1.3,0.2 l 0,-4.1 3.2,0 0,-2.7 z m 62,10.6 0,5.5 -1.3,0 -59.4,0 C 21.6,86.9 21,86.3 21,85.6 l 0,-4.2 c 0,-0.7 0.6,-1.3 1.3,-1.3 l 13.4,0 47.3,0 z m -47.3,-4 -1.7,0 0,-64.7 1.7,0 45.9,0 1.4,0 0,64.7 z" />
  <path fill="#ff794a" d="m 45.4,34.4 24.2,0 0,2.7 -24.2,0 z m 0,6.8 24.2,0 0,2.7 -24.2,0 z" />
</svg>
