<?xml version="1.0" encoding="UTF-8"?>
<svg xmlns="http://www.w3.org/2000/svg" xmlns:xlink="http://www.w3.org/1999/xlink" version="1.1" x="0px" y="0px" viewBox="0 0 100 125" enable-background="new 0 0 100 100" xml:space="preserve">
  <g>
    <path fill="#7dcfef" d="M79.8,68.8c-0.1,0-0.2,0-0.3,0L20.7,51c-0.3-0.1-0.6-0.4-0.7-0.7c-0.1-0.4,0-0.7,0.3-1   c6.3-5.5,14.8-8.9,25.3-10.3c0.6-0.1,1,0.3,1.1,0.9s-0.3,1-0.9,1.1c-9.3,1.2-17,4.1-22.8,8.6L77.5,66L61,40.7   c-0.7-0.1-2.3-0.2-4.5-0.3c-0.6,0-1-0.5-1-1s0.5-1,1-1c3.2,0.1,5.1,0.3,5.2,0.3c0.3,0,0.5,0.2,0.7,0.4l18.3,28   c0.2,0.4,0.2,0.8,0,1.1C80.4,68.7,80.1,68.8,79.8,68.8z"/>
    <path fill="#7dcfef" d="M79.8,89.6c-0.1,0-0.2,0-0.3,0L20.7,71.8c-0.5-0.2-0.8-0.7-0.7-1.2c0.2-0.5,0.7-0.8,1.2-0.7l58.8,17.7   c0.5,0.2,0.8,0.7,0.7,1.2C80.7,89.3,80.3,89.6,79.8,89.6z"/>
    <path fill="#7dcfef" d="M21,71.5c-0.6,0-1-0.4-1-1V50c0-0.6,0.4-1,1-1s1,0.4,1,1v20.5C22,71.1,21.6,71.5,21,71.5z"/>
    <path fill="#7dcfef" d="M79.8,89.3c-0.6,0-1-0.4-1-1V67.8c0-0.6,0.4-1,1-1s1,0.4,1,1v20.5C80.8,88.8,80.4,89.3,79.8,89.3z"/>
    <path fill="#ff794a" d="M51.2,34c-3.1,0-6.3-0.8-6.3-2.7c0-1,0.7-2.3,3.9-2.7c0,0,0.1,0,0.1,0c0.7,0,1.2,0.5,1.8,1.1   c0.1,0.1,0.3,0.3,0.5,0.4c0.1-0.1,0.3-0.3,0.4-0.4c0.6-0.6,1.2-1.2,1.9-1.1c3.4,0.4,4,1.8,4,2.7C57.5,33.2,54.3,34,51.2,34z    M53.6,30.6c-0.2,0.1-0.4,0.4-0.5,0.5c-0.3,0.3-0.7,0.7-1,0.9c1.8-0.1,3-0.5,3.4-0.8C55.3,31.1,54.8,30.8,53.6,30.6z M47,31.2   c0.4,0.3,1.6,0.7,3.4,0.8c-0.3-0.2-0.7-0.5-1-0.9c-0.2-0.2-0.4-0.4-0.6-0.5C47.6,30.8,47.1,31,47,31.2z"/>
    <path fill="#ff794a" d="M51.2,54.8c-3.1,0-6.3-0.8-6.3-2.7c0-0.6,0.4-1,1-1c0.5,0,0.9,0.4,1,0.9c0.3,0.3,1.9,0.9,4.3,0.9   s4-0.6,4.3-0.9c0.1-0.5,0.5-0.9,1-0.9c0.6,0,1,0.4,1,1C57.5,54,54.3,54.8,51.2,54.8z"/>
    <path fill="#ff794a" d="M45.9,53.3c-0.6,0-1-0.4-1-1v-21c0-0.6,0.4-1,1-1s1,0.4,1,1v21C46.9,52.8,46.4,53.3,45.9,53.3z"/>
    <path fill="#ff794a" d="M56.5,53.3c-0.6,0-1-0.4-1-1v-21c0-0.6,0.4-1,1-1s1,0.4,1,1v21C57.5,52.8,57,53.3,56.5,53.3z"/>
    <path fill="#ff794a" d="M51.2,32.3c-0.1,0-0.3,0-0.4-0.1c-0.2-0.1-0.3-0.2-0.4-0.3c-0.7-0.7-4-4.1-4.9-6.9c-0.6-1.9-0.5-5.1,1-7.9   c2.1-3.9,3.8-8.2,3.8-8.2c0.1-0.4,0.5-0.6,0.9-0.6s0.8,0.3,1,0.6c0,0,1.7,4.3,3.8,8.2c1.5,2.8,1.6,6,1,7.9   c-0.9,2.8-4.1,6.1-4.9,6.9c-0.1,0.1-0.2,0.2-0.4,0.3c-0.1,0-0.2,0.1-0.2,0.1C51.3,32.3,51.2,32.3,51.2,32.3z M51.2,11.9   c-0.7,1.6-1.8,3.9-3,6.2c-1.3,2.4-1.2,5.1-0.8,6.3c0.5,1.7,2.5,4,3.8,5.4c1.4-1.5,3.3-3.7,3.8-5.4c0.4-1.2,0.5-3.9-0.8-6.3   C52.9,15.9,51.9,13.6,51.2,11.9z"/>
    <path fill="#7dcfef" d="M79.8,81.8c-0.1,0-0.2,0-0.3,0L20.7,64.5c-0.5-0.2-0.8-0.7-0.7-1.2s0.7-0.8,1.2-0.7l58.8,17.3   c0.5,0.2,0.8,0.7,0.7,1.2C80.7,81.5,80.3,81.8,79.8,81.8z"/>
  </g>
</svg>
